<?xml version="1.0" standalone="no"?>
<!DOCTYPE svg PUBLIC "-//W3C//DTD SVG 20010904//EN"
 "http://www.w3.org/TR/2001/REC-SVG-20010904/DTD/svg10.dtd">
<svg version="1.0" xmlns="http://www.w3.org/2000/svg"
 width="211.000000pt" height="34.000000pt" viewBox="0 0 211.000000 34.000000"
 preserveAspectRatio="xMidYMid meet">
<metadata>
Created by potrace 1.10, written by Peter Selinger 2001-2011
</metadata>
<g transform="translate(0.000000,34.000000) scale(0.100000,-0.100000)"
fill="#000000" stroke="none">
<path d="M367 295 c-52 -18 -75 -41 -87 -86 -25 -92 37 -169 135 -169 104 0
169 110 115 197 -35 59 -98 81 -163 58z m111 -50 c78 -65 21 -186 -81 -172
-55 8 -87 43 -87 98 0 87 100 131 168 74z"/>
<path d="M690 299 c-21 -4 -48 -22 -67 -43 -55 -60 -43 -146 27 -194 29 -20
44 -23 89 -19 47 3 59 9 88 40 27 30 33 45 33 82 0 99 -71 155 -170 134z m103
-49 c52 -41 44 -136 -14 -165 -42 -22 -83 -18 -117 10 -51 43 -50 117 1 157
31 25 98 23 130 -2z"/>
<path d="M20 170 c0 -125 1 -130 21 -130 19 0 21 5 17 40 l-4 40 46 0 c42 -1
47 -4 70 -40 13 -23 32 -40 42 -40 24 0 22 9 -11 50 l-29 34 29 27 c31 29 37
61 18 102 -16 35 -49 47 -129 47 l-70 0 0 -130z m152 88 c27 -22 30 -53 7 -81
-17 -23 -28 -27 -72 -27 l-52 0 0 60 0 60 51 0 c27 0 57 -6 66 -12z"/>
<path d="M921 170 c-2 -127 -1 -130 20 -130 20 0 21 4 17 95 -1 52 -1 95 2 95
3 0 25 -36 50 -80 25 -44 48 -80 52 -80 4 0 29 37 55 82 l48 82 3 -97 c2 -77
6 -97 17 -97 12 0 15 23 15 130 0 106 -3 130 -14 130 -8 0 -38 -41 -67 -91
-60 -104 -50 -106 -122 18 -63 109 -73 101 -76 -57z"/>
<path d="M1280 170 c0 -125 1 -130 21 -130 19 0 21 5 17 60 l-3 60 78 0 77 0
0 -60 c0 -50 3 -60 18 -60 15 0 17 13 17 130 0 117 -2 130 -17 130 -15 0 -18
-9 -18 -55 l0 -55 -77 0 -78 0 3 55 c4 50 2 55 -17 55 -20 0 -21 -5 -21 -130z"/>
<path d="M1582 199 c4 -99 4 -102 36 -130 46 -41 111 -41 153 0 28 29 29 32
29 130 0 83 -3 101 -15 101 -12 0 -15 -17 -15 -89 0 -107 -18 -141 -76 -141
-60 0 -74 25 -74 135 0 90 -1 95 -21 95 -21 0 -21 -4 -17 -101z"/>
<path d="M1881 170 l0 -130 82 0 c107 0 131 12 135 67 2 32 -1 44 -18 56 -18
12 -19 16 -5 27 8 7 15 27 15 46 0 50 -28 64 -127 64 l-82 0 0 -130z m173 78
c21 -34 -4 -53 -73 -56 l-61 -3 0 41 0 41 61 -3 c46 -2 65 -8 73 -20z m-3 -98
c21 -12 25 -50 7 -68 -7 -7 -39 -12 -75 -12 l-63 0 0 45 0 45 56 0 c30 0 64
-5 75 -10z"/>
</g>
</svg>
